<?xml version="1.0" encoding="UTF-8"?>
<svg version="1.1" xmlns="http://www.w3.org/2000/svg" width="78" height="57">
<path d="M0 0 C25.74 0 51.48 0 78 0 C78 18.81 78 37.62 78 57 C52.26 57 26.52 57 0 57 C0 38.19 0 19.38 0 0 Z " fill="#121623" transform="translate(0,0)"/>
<path d="M0 0 C25.74 0 51.48 0 78 0 C78 18.81 78 37.62 78 57 C52.26 57 26.52 57 0 57 C0 38.19 0 19.38 0 0 Z M11 6 C10.68943126 8.97695617 10.5558488 11.74035495 10.56640625 14.71875 C10.5611644 15.57303589 10.55592255 16.42732178 10.55052185 17.30749512 C10.54410062 19.11302605 10.54543998 20.91859882 10.55395508 22.72412109 C10.56246926 25.49001317 10.53370021 28.25384309 10.50195312 31.01953125 C10.50034115 32.77343688 10.50091857 34.52734617 10.50390625 36.28125 C10.49267227 37.10943237 10.48143829 37.93761475 10.46986389 38.79089355 C10.48796774 43.28612455 10.48796774 43.28612455 12.74682617 47.01293945 C15.167856 48.07353362 16.91119839 48.42267562 19.546875 48.51171875 C20.39121094 48.54716797 21.23554688 48.58261719 22.10546875 48.61914062 C22.97816406 48.64169922 23.85085937 48.66425781 24.75 48.6875 C25.63816406 48.72166016 26.52632812 48.75582031 27.44140625 48.79101562 C29.62747803 48.87328714 31.81315951 48.94250172 34 49 C34.99 50.98 35.98 52.96 37 55 C39.45224694 54.89386164 39.45224694 54.89386164 42 54 C43.19218842 51.49908038 43.19218842 51.49908038 44 49 C44.58491211 48.9906543 45.16982422 48.98130859 45.77246094 48.97167969 C48.4324858 48.91786721 51.09077222 48.83424551 53.75 48.75 C54.67039063 48.73582031 55.59078125 48.72164062 56.5390625 48.70703125 C57.42851563 48.67480469 58.31796875 48.64257812 59.234375 48.609375 C60.05131836 48.58842773 60.86826172 48.56748047 61.70996094 48.54589844 C64.98200424 47.76591029 66.07699158 46.76953252 68 44 C68.39759776 41.00807687 68.56146575 38.39203099 68.53125 35.40234375 C68.5350769 34.57166885 68.53890381 33.74099396 68.54284668 32.88514709 C68.54556397 31.13264755 68.53821547 29.38010733 68.52148438 27.62768555 C68.50004337 24.94293101 68.52130435 22.26084406 68.546875 19.57617188 C68.54423222 17.87238992 68.53910827 16.16860963 68.53125 14.46484375 C68.53934692 13.66167221 68.54744385 12.85850067 68.55578613 12.0309906 C68.5043012 7.62041733 68.5043012 7.62041733 66.22412109 3.99804688 C62.52836358 2.33962133 59.1198991 2.52700413 55.125 2.5625 C54.33480469 2.54251953 53.54460938 2.52253906 52.73046875 2.50195312 C47.20930217 2.50654644 44.29292776 3.51458438 40 7 C36 5 36 5 34.12329102 3.94848633 C30.50880809 2.33387598 26.83977983 2.67200246 22.9375 2.6875 C22.12216797 2.67138672 21.30683594 2.65527344 20.46679688 2.63867188 C19.29020508 2.63770508 19.29020508 2.63770508 18.08984375 2.63671875 C17.37691162 2.63373779 16.66397949 2.63075684 15.92944336 2.62768555 C13.39799805 3.11616512 12.61774211 4.02047314 11 6 Z " fill="#FBFCFC" transform="translate(0,0)"/>
<path d="M0 0 C0 11.22 0 22.44 0 34 C-10.395 34.495 -10.395 34.495 -21 35 C-21.0919778 30.79968033 -21.1715554 26.60286927 -21.21972656 22.40234375 C-21.23980982 20.97448879 -21.26708252 19.54671575 -21.30175781 18.11914062 C-21.35042669 16.06359632 -21.37299967 14.00914145 -21.390625 11.953125 C-21.41157227 10.71723633 -21.43251953 9.48134766 -21.45410156 8.20800781 C-20.91713917 4.41462835 -19.98212544 3.31111256 -17 1 C-11.92281793 -1.53859104 -5.67646212 0 0 0 Z " fill="#F1F2F3" transform="translate(63,8)"/>
<path d="M0 0 C14 0 14 0 19 3 C21.45286296 6.67929445 21.23228878 8.47377907 21.1953125 12.85546875 C21.1924826 13.51710526 21.18965271 14.17874176 21.18673706 14.86042786 C21.17555918 16.96963737 21.15045981 19.07841925 21.125 21.1875 C21.11496707 22.61913448 21.10584176 24.05077564 21.09765625 25.48242188 C21.07562795 28.98841977 21.04111485 32.49416813 21 36 C20.42475586 35.84152588 19.84951172 35.68305176 19.25683594 35.51977539 C17.09060223 35.02086674 15.10677317 34.80111676 12.890625 34.68359375 C12.21032227 34.64548584 11.53001953 34.60737793 10.82910156 34.56811523 C9.97799805 34.52501221 9.12689453 34.48190918 8.25 34.4375 C5.5275 34.293125 2.805 34.14875 0 34 C0 22.78 0 11.56 0 0 Z " fill="#F2F3F4" transform="translate(16,8)"/>
<path d="M0 0 C0.82048828 -0.020625 1.64097656 -0.04125 2.48632812 -0.0625 C3.28103516 -0.06765625 4.07574219 -0.0728125 4.89453125 -0.078125 C5.6213208 -0.0874707 6.34811035 -0.09681641 7.09692383 -0.10644531 C10.03632691 0.39472583 11.20167004 0.9847236 13.1875 3.25 C13.58014311 6.20924893 13.72481404 8.79145127 13.68359375 11.75 C13.68504898 12.58208984 13.68650421 13.41417969 13.68800354 14.27148438 C13.68634423 16.02998355 13.67477923 17.78849719 13.65405273 19.546875 C13.62510522 22.24021012 13.63344057 24.93157639 13.64648438 27.625 C13.6402467 29.33334291 13.63185552 31.0416796 13.62109375 32.75 C13.62402939 33.55630859 13.62696503 34.36261719 13.62998962 35.19335938 C13.53434815 40.85515267 13.53434815 40.85515267 11.6622467 42.98632812 C11.17558029 43.40333984 10.68891388 43.82035156 10.1875 44.25 C8.7025 43.755 8.7025 43.755 7.1875 43.25 C7.8475 41.93 8.5075 40.61 9.1875 39.25 C8.6925 38.755 8.6925 38.755 8.1875 38.25 C8.09906207 35.80169574 8.07221248 33.38179401 8.08984375 30.93359375 C8.0912587 30.20253922 8.09267365 29.47148468 8.09413147 28.71827698 C8.09974592 26.37464368 8.11230078 24.03110461 8.125 21.6875 C8.13001314 20.10221492 8.13457637 18.51692834 8.13867188 16.93164062 C8.14887079 13.03769457 8.16844313 9.14395323 8.1875 5.25 C2.2475 5.58 -3.6925 5.91 -9.8125 6.25 C-9.8125 -1.74536534 -6.81125857 0.04220764 0 0 Z " fill="#0C111D" transform="translate(54.8125,2.75)"/>
<path d="M0 0 C-0.5259375 0.928125 -0.5259375 0.928125 -1.0625 1.875 C-1.371875 2.57625 -1.68125 3.2775 -2 4 C-1.67 4.66 -1.34 5.32 -1 6 C-7.27 6 -13.54 6 -20 6 C-20.66 4.68 -21.32 3.36 -22 2 C-21.67 1.34 -21.34 0.68 -21 0 C-17.87549468 -0.19645093 -14.75038555 -0.38063489 -11.625 -0.5625 C-10.29082031 -0.64661133 -10.29082031 -0.64661133 -8.9296875 -0.73242188 C-7.65351562 -0.80493164 -7.65351562 -0.80493164 -6.3515625 -0.87890625 C-5.56604004 -0.9260376 -4.78051758 -0.97316895 -3.97119141 -1.02172852 C-2 -1 -2 -1 0 0 Z " fill="#222633" transform="translate(65,42)"/>
<path d="M0 0 C6.6 0 13.2 0 20 0 C19.34 1.32 18.68 2.64 18 4 C11.4 4 4.8 4 -2 4 C-1.34 2.68 -0.68 1.36 0 0 Z " fill="#030716" transform="translate(16,43)"/>
<path d="M0 0 C1.23556641 0.01740234 1.23556641 0.01740234 2.49609375 0.03515625 C3.32238281 0.04417969 4.14867187 0.05320312 5 0.0625 C5.63808594 0.07410156 6.27617188 0.08570312 6.93359375 0.09765625 C6.60359375 1.74765625 6.27359375 3.39765625 5.93359375 5.09765625 C3.29359375 5.09765625 0.65359375 5.09765625 -2.06640625 5.09765625 C-2.62890625 3.16015625 -2.62890625 3.16015625 -3.06640625 1.09765625 C-2.06640625 0.09765625 -2.06640625 0.09765625 0 0 Z " fill="#060A16" transform="translate(50.06640625,26.90234375)"/>
<path d="M0 0 C1.23556641 0.01740234 1.23556641 0.01740234 2.49609375 0.03515625 C3.32238281 0.04417969 4.14867187 0.05320312 5 0.0625 C5.63808594 0.07410156 6.27617187 0.08570312 6.93359375 0.09765625 C6.60359375 1.74765625 6.27359375 3.39765625 5.93359375 5.09765625 C3.29359375 5.09765625 0.65359375 5.09765625 -2.06640625 5.09765625 C-2.62890625 3.16015625 -2.62890625 3.16015625 -3.06640625 1.09765625 C-2.06640625 0.09765625 -2.06640625 0.09765625 0 0 Z " fill="#101420" transform="translate(24.06640625,26.90234375)"/>
<path d="M0 0 C2.05078125 0.03255208 4.1015625 0.06510417 6.15234375 0.09765625 C6.48234375 1.74765625 6.81234375 3.39765625 7.15234375 5.09765625 C4.18234375 5.09765625 1.21234375 5.09765625 -1.84765625 5.09765625 C-2.17765625 3.77765625 -2.50765625 2.45765625 -2.84765625 1.09765625 C-1.84765625 0.09765625 -1.84765625 0.09765625 0 0 Z " fill="#060A15" transform="translate(49.84765625,15.90234375)"/>
<path d="M0 0 C2.05078125 0.03255208 4.1015625 0.06510417 6.15234375 0.09765625 C6.48234375 1.74765625 6.81234375 3.39765625 7.15234375 5.09765625 C4.18234375 5.09765625 1.21234375 5.09765625 -1.84765625 5.09765625 C-2.17765625 3.77765625 -2.50765625 2.45765625 -2.84765625 1.09765625 C-1.84765625 0.09765625 -1.84765625 0.09765625 0 0 Z " fill="#141724" transform="translate(23.84765625,15.90234375)"/>
<path d="M0 0 C2.64 0 5.28 0 8 0 C5 1.5 5 1.5 2 3 C2.33 3.66 2.66 4.32 3 5 C1.68 4.67 0.36 4.34 -1 4 C-0.67 2.68 -0.34 1.36 0 0 Z " fill="#252933" transform="translate(48,16)"/>
<path d="M0 0 C2.0625 0.4375 2.0625 0.4375 4 1 C3.34 1.66 2.68 2.32 2 3 C4.97 3.495 4.97 3.495 8 4 C8 4.33 8 4.66 8 5 C5.36 5 2.72 5 0 5 C-0.5625 3.0625 -0.5625 3.0625 -1 1 C-0.67 0.67 -0.34 0.34 0 0 Z " fill="#20242C" transform="translate(48,27)"/>
</svg>
